<?xml version="1.0" standalone="no"?>
<!DOCTYPE svg PUBLIC "-//W3C//DTD SVG 20010904//EN"
 "http://www.w3.org/TR/2001/REC-SVG-20010904/DTD/svg10.dtd">
<svg version="1.0" xmlns="http://www.w3.org/2000/svg"
 width="640.000000pt" height="640.000000pt" viewBox="0 0 640.000000 640.000000"
 preserveAspectRatio="xMidYMid meet">
<metadata>
Created by potrace 1.11, written by Peter Selinger 2001-2013
</metadata>
<g transform="translate(0.000000,640.000000) scale(0.100000,-0.100000)"
fill="#000000" stroke="none">
<path d="M3298 5405 c-2 -2 -37 -7 -78 -10 -98 -9 -117 -11 -245 -31 -214 -35
-543 -126 -700 -194 -11 -5 -58 -25 -105 -45 -132 -56 -341 -167 -453 -241
-56 -37 -104 -69 -107 -73 -3 -3 -22 -19 -43 -35 -97 -72 -215 -205 -270 -303
-87 -158 -86 -358 5 -509 22 -38 42 -71 44 -73 2 -2 10 2 18 8 11 9 16 9 22 0
4 -7 3 -9 -3 -6 -6 4 -16 0 -23 -8 -11 -14 -7 -19 13 -16 4 0 7 -3 7 -9 0 -5
5 -10 11 -10 5 0 7 5 4 10 -3 6 0 13 9 16 9 4 13 15 10 32 -3 21 -2 23 6 12 9
-14 11 -13 14 10 0 6 7 14 14 19 8 5 12 10 10 12 -3 4 9 21 44 59 9 10 15 20
13 22 -2 2 12 21 31 43 19 22 34 43 34 48 0 4 4 6 9 2 6 -3 8 3 6 14 -3 15 0
18 12 14 11 -4 14 -2 9 5 -4 8 2 16 16 21 13 6 20 10 16 10 -3 1 21 29 55 64
34 34 61 65 59 70 -1 4 1 6 5 6 20 -3 34 2 28 11 -3 6 -1 10 4 10 12 0 56 41
56 52 0 3 4 10 9 15 5 5 6 3 2 -4 -4 -7 -2 -13 3 -13 6 0 11 5 11 11 0 5 5 7
12 3 8 -5 9 -2 5 10 -4 9 -3 15 2 11 5 -3 16 2 24 10 9 8 20 15 26 15 6 0 11
7 11 16 0 9 5 12 12 8 6 -4 16 0 22 8 6 8 19 17 30 21 12 5 16 13 12 23 -5 14
-4 15 9 4 11 -9 15 -9 15 -1 0 7 4 10 9 7 5 -4 11 -2 13 3 1 5 19 18 38 29 19
11 34 25 32 32 -1 6 2 8 8 5 6 -4 29 5 51 19 21 15 39 23 39 20 0 -4 8 0 18 9
10 10 22 14 25 10 4 -3 7 -1 7 5 0 7 8 12 19 12 10 0 24 7 31 15 7 8 16 12 21
9 5 -3 9 0 9 6 0 6 5 8 10 5 6 -3 10 -1 10 4 0 6 7 11 15 11 8 0 15 4 15 9 0
6 9 8 20 6 11 -2 20 0 20 5 0 5 14 11 30 15 17 4 30 11 30 16 0 5 9 9 20 9 11
0 20 4 20 9 0 6 9 8 20 6 11 -2 20 1 20 7 0 5 7 7 16 4 11 -4 15 -2 11 8 -4
10 -1 13 9 9 20 -7 66 6 59 17 -3 6 1 7 10 4 8 -4 21 -2 28 4 6 5 20 8 30 7 9
-2 17 1 17 7 0 6 7 7 16 4 12 -4 15 -2 11 9 -4 8 -1 17 5 21 6 4 8 3 4 -4 -11
-18 7 -21 48 -7 22 8 43 12 48 9 4 -3 8 -1 8 5 0 6 7 7 17 4 11 -4 14 -3 9 5
-4 7 -2 12 3 12 6 0 11 -4 11 -9 0 -5 9 -7 20 -4 17 5 18 8 8 22 -8 10 -5 10
10 -3 13 -12 22 -14 22 -7 0 7 5 9 10 6 6 -3 10 -1 10 4 0 6 5 11 11 11 5 0 8
-4 5 -8 -3 -5 5 -7 17 -6 12 1 22 3 22 4 0 4 35 9 83 13 23 2 45 7 48 10 3 3
12 3 20 0 10 -4 12 0 7 13 -7 18 -6 18 11 1 10 -9 22 -15 26 -12 5 3 30 6 54
7 25 0 44 4 41 8 -2 3 2 7 10 7 8 0 12 -3 10 -7 -2 -4 16 -7 40 -6 25 1 45 6
45 11 0 6 4 4 9 -3 4 -8 12 -14 16 -14 4 0 12 6 16 14 7 11 9 11 9 -1 0 -10 3
-11 14 -2 8 7 17 8 20 3 3 -5 27 -10 53 -12 27 -1 64 -3 85 -3 20 -1 34 -6 31
-11 -3 -5 0 -6 8 -4 8 3 33 -1 56 -7 24 -7 41 -9 38 -5 -5 8 34 -8 75 -29 9
-5 20 -2 28 8 8 9 11 11 8 5 -7 -15 20 -38 34 -29 5 3 10 3 10 -2 0 -10 57
-43 76 -43 8 0 14 -4 14 -10 0 -5 6 -10 13 -10 13 0 139 -98 145 -112 2 -5 10
-15 18 -23 8 -8 25 -36 36 -62 29 -64 31 -240 5 -353 -63 -273 -256 -487 -582
-647 -55 -27 -135 -62 -178 -77 -74 -27 -80 -28 -125 -15 -27 8 -92 14 -152
14 -121 -1 -191 -22 -273 -82 -92 -68 -176 -211 -208 -356 -13 -60 -10 -67 25
-80 5 -1 9 -15 9 -31 0 -18 4 -26 13 -22 7 3 14 0 16 -6 4 -12 168 -18 168 -5
0 4 14 5 30 2 17 -3 30 -1 30 3 0 5 13 9 28 10 15 0 34 2 41 4 9 2 37 -50 80
-147 124 -278 268 -559 386 -750 33 -55 68 -111 76 -124 8 -14 19 -32 26 -40
7 -9 35 -49 63 -89 28 -39 55 -72 61 -72 6 0 8 -4 4 -9 -3 -5 5 -17 17 -25 12
-9 18 -16 13 -16 -6 0 -2 -5 8 -11 9 -5 17 -17 17 -24 0 -8 7 -15 17 -15 9 0
14 -3 10 -6 -8 -8 18 -34 33 -34 6 0 9 -3 7 -8 -2 -4 20 -31 49 -60 30 -29 54
-49 54 -45 0 5 5 0 10 -9 15 -25 161 -120 176 -114 8 3 11 0 8 -8 -3 -7 1 -13
8 -13 23 -1 43 -8 51 -18 4 -6 10 -5 16 3 7 11 9 10 15 -3 3 -9 10 -13 16 -10
5 3 10 0 10 -7 0 -9 3 -9 10 2 6 10 10 11 10 3 0 -7 10 -13 23 -13 12 0 40 -1
62 -3 22 -1 43 3 47 8 5 6 8 5 8 -4 0 -11 3 -11 15 -1 8 7 13 16 10 20 -3 5
-1 11 4 15 6 3 8 -3 6 -15 -5 -26 5 -25 41 2 18 14 24 16 15 5 -8 -10 -9 -17
-3 -17 6 0 14 5 17 10 4 6 11 7 17 4 8 -5 9 -1 4 12 -5 14 -4 16 4 8 13 -13
53 -7 44 7 -3 5 2 6 10 3 10 -4 16 -1 16 7 0 7 3 10 6 6 9 -8 64 21 64 34 0 6
4 8 9 4 6 -3 13 1 18 9 4 8 10 15 13 15 17 0 39 14 34 22 -3 5 4 9 15 9 11 0
29 12 40 26 12 15 21 24 21 21 0 -8 131 120 133 130 1 4 13 18 27 31 14 13 18
21 10 17 -10 -4 -9 -1 3 8 9 8 17 20 17 26 0 7 4 10 9 7 11 -7 23 22 14 36 -4
7 -1 8 7 3 10 -6 12 -4 7 8 -4 11 -2 14 9 10 8 -3 14 -2 12 3 -1 5 3 19 10 31
7 13 10 23 6 23 -3 0 -1 6 5 13 6 8 12 28 14 45 2 18 7 35 10 38 3 4 2 16 -4
27 -8 14 -8 18 0 12 15 -8 6 89 -10 113 -9 14 -10 13 -5 -7 3 -17 2 -21 -6
-13 -5 5 -12 27 -15 48 -3 22 -7 41 -8 42 -2 2 -45 -40 -97 -93 -165 -171
-286 -235 -432 -232 -61 2 -84 8 -148 40 -85 42 -194 137 -288 251 -67 83
-220 308 -220 325 0 6 -5 11 -12 11 -6 0 -8 3 -5 7 4 3 1 13 -7 22 -7 9 -32
52 -56 96 -23 44 -46 84 -51 89 -5 6 -9 18 -9 27 0 10 -3 19 -7 21 -12 5 -64
108 -56 108 5 0 3 4 -3 8 -5 4 -17 23 -26 42 -56 122 -110 237 -118 252 -6 10
-10 25 -10 33 0 10 -5 13 -12 9 -9 -5 -8 -2 1 9 8 10 16 15 19 12 3 -2 11 3
19 13 8 9 12 11 8 5 -3 -7 -1 -13 4 -13 6 0 11 5 11 11 0 6 6 9 14 6 8 -3 17
1 20 9 3 9 10 12 16 9 5 -3 10 -2 10 2 0 5 10 10 22 10 13 1 24 7 26 13 2 5 8
8 13 4 5 -3 9 0 9 5 0 6 9 11 19 11 11 0 21 5 23 10 2 6 13 12 25 13 12 0 19
5 17 9 -3 4 4 8 15 8 12 0 21 5 21 11 0 5 5 7 10 4 6 -3 10 -1 10 4 0 6 3 10
8 9 25 -5 97 43 84 57 -4 5 -1 5 6 0 14 -7 61 11 74 30 4 5 8 6 8 2 0 -4 6 -2
14 5 7 7 11 20 9 28 -3 10 -1 9 7 -2 9 -15 14 -15 24 -5 8 6 11 16 8 21 -3 5
1 6 8 1 8 -5 18 -1 27 11 8 10 17 18 21 17 4 -2 7 1 7 6 0 5 4 13 8 18 5 4 8
4 7 -2 -5 -23 1 -24 23 -5 58 54 60 55 53 40 -4 -8 2 -4 13 9 12 13 21 20 21
16 0 -3 6 0 14 7 7 7 23 19 34 27 12 8 19 18 16 23 -3 4 2 5 10 2 9 -3 16 -1
16 6 0 6 4 9 9 6 5 -3 11 4 14 16 4 12 9 19 12 16 4 -3 39 26 78 64 43 42 67
72 60 75 -7 3 -13 10 -13 16 0 8 3 8 11 0 13 -13 42 -6 34 8 -3 4 3 14 15 21
11 7 20 20 20 28 0 9 9 22 19 30 11 7 18 17 15 22 -3 4 0 8 7 8 7 0 9 3 6 6
-4 4 2 19 12 33 18 27 49 100 58 136 9 39 11 50 13 50 4 0 12 43 13 72 0 17 5
29 9 27 4 -3 6 11 3 30 -2 20 -1 36 3 36 10 0 8 42 -3 60 -5 8 -4 11 2 7 11
-7 8 136 -4 163 -11 26 -12 40 -2 34 5 -3 9 -1 9 5 0 5 -4 11 -10 13 -5 2 -11
20 -12 40 -2 21 -7 38 -11 38 -5 0 -5 5 -2 10 3 6 1 10 -5 10 -6 0 -8 5 -5 10
3 6 1 10 -5 10 -6 0 -9 4 -5 9 3 5 1 12 -5 16 -6 4 -8 11 -5 16 4 5 1 9 -4 9
-6 0 -11 9 -11 20 0 11 -4 20 -10 20 -5 0 -10 5 -10 10 0 21 -73 125 -128 182
-142 149 -406 260 -697 294 -27 3 -61 8 -75 11 -28 7 -606 14 -612 8z m-133
-385 c3 -5 1 -10 -4 -10 -6 0 -11 5 -11 10 0 6 2 10 4 10 3 0 8 -4 11 -10z
m-378 -75 c0 -8 -4 -12 -9 -9 -5 3 -6 10 -3 15 9 13 12 11 12 -6z m-82 -44
c-9 -8 -36 -10 -30 -2 2 4 11 8 20 8 8 0 13 -3 10 -6z m-91 -19 c2 -4 -4 -8
-14 -8 -10 0 -16 4 -14 8 3 4 9 8 14 8 5 0 11 -4 14 -8z m-127 -77 c0 -8 -4
-12 -9 -9 -5 3 -6 10 -3 15 9 13 12 11 12 -6z m-97 -45 c0 -5 -2 -10 -4 -10
-3 0 -8 5 -11 10 -3 6 -1 10 4 10 6 0 11 -4 11 -10z m-46 -18 c3 -5 -1 -9 -9
-9 -8 0 -12 4 -9 9 3 4 7 8 9 8 2 0 6 -4 9 -8z m-78 -27 c-1 -8 -5 -17 -8 -21
-5 -4 -4 16 1 34 3 9 9 -1 7 -13z m-121 -44 c3 -5 2 -12 -3 -15 -5 -3 -9 1 -9
9 0 17 3 19 12 6z m-79 -76 c-1 -8 -5 -17 -8 -21 -5 -4 -4 16 1 34 3 9 9 -1 7
-13z m-81 -43 c-3 -3 -11 0 -18 7 -9 10 -8 11 6 5 10 -3 15 -9 12 -12z m-80
-51 c-9 -8 -36 -10 -30 -2 2 4 11 8 20 8 8 0 13 -3 10 -6z m-121 -119 c3 -5
-1 -9 -9 -9 -8 0 -12 4 -9 9 3 4 7 8 9 8 2 0 6 -4 9 -8z m-121 -137 c-7 -21
-12 -19 -10 4 0 11 5 18 9 15 4 -3 5 -11 1 -19z m-138 -114 c3 -5 2 -12 -3
-15 -5 -3 -9 1 -9 9 0 17 3 19 12 6z m-35 -91 c0 -5 -2 -10 -4 -10 -3 0 -8 5
-11 10 -3 6 -1 10 4 10 6 0 11 -4 11 -10z m3275 -20 c3 -5 1 -10 -4 -10 -6 0
-11 5 -11 10 0 6 2 10 4 10 3 0 8 -4 11 -10z m-65 -56 c0 -8 -19 -13 -24 -6
-3 5 1 9 9 9 8 0 15 -2 15 -3z m-130 -164 c0 -5 -5 -10 -11 -10 -5 0 -7 5 -4
10 3 6 8 10 11 10 2 0 4 -4 4 -10z m-80 -55 c0 -7 -30 -13 -34 -7 -3 4 4 9 15
9 10 1 19 0 19 -2z m-146 -127 c-3 -4 -11 -5 -19 -1 -21 7 -19 12 4 10 11 0
18 -5 15 -9z m-234 -114 c0 -8 -19 -13 -24 -6 -3 5 1 9 9 9 8 0 15 -2 15 -3z
m-60 -38 c0 -3 -4 -8 -10 -11 -5 -3 -10 -1 -10 4 0 6 5 11 10 11 6 0 10 -2 10
-4z m-320 -160 c0 -3 -4 -8 -10 -11 -5 -3 -10 -1 -10 4 0 6 5 11 10 11 6 0 10
-2 10 -4z m-623 -241 c0 -8 -4 -12 -9 -9 -5 3 -6 10 -3 15 9 13 12 11 12 -6z
m2003 -1321 c0 -8 -19 -13 -24 -6 -3 5 1 9 9 9 8 0 15 -2 15 -3z m-66 -70 c3
-8 2 -12 -4 -9 -6 3 -10 10 -10 16 0 14 7 11 14 -7z m-93 -71 c13 -16 12 -17
-3 -4 -17 13 -22 21 -14 21 2 0 10 -8 17 -17z m-1 -57 c0 -2 -8 -10 -17 -17
-16 -13 -17 -12 -4 4 13 16 21 21 21 13z m-60 -10 c0 -2 -8 -10 -17 -17 -16
-13 -17 -12 -4 4 13 16 21 21 21 13z m-65 -28 c5 4 5 1 1 -6 -6 -10 -11 -10
-22 -1 -8 6 -14 14 -14 16 0 3 6 0 13 -6 8 -6 18 -7 22 -3z m-39 -64 c1 -9 0
-13 -4 -10 -3 4 -7 14 -8 22 -1 9 0 13 4 10 3 -4 7 -14 8 -22z m-56 2 c0 -3
-4 -8 -10 -11 -5 -3 -10 -1 -10 4 0 6 5 11 10 11 6 0 10 -2 10 -4z m-400 -21
c0 -7 -30 -13 -34 -7 -3 4 4 9 15 9 10 1 19 0 19 -2z m300 -1 c0 -8 -19 -13
-24 -6 -3 5 1 9 9 9 8 0 15 -2 15 -3z m-83 -39 c0 -8 -4 -12 -9 -9 -5 3 -6 10
-3 15 9 13 12 11 12 -6z"/>
<path d="M2580 4620 c-65 -13 -355 -103 -367 -114 -1 -1 12 -29 28 -61 30 -58
31 -64 26 -155 -6 -102 -11 -140 -32 -240 -3 -14 -8 -38 -11 -55 -3 -16 -29
-151 -59 -300 -30 -148 -56 -281 -59 -295 -2 -14 -9 -45 -15 -70 -5 -25 -12
-59 -15 -77 -3 -17 -29 -147 -57 -290 -28 -142 -53 -267 -55 -278 -2 -11 -13
-67 -25 -124 -11 -57 -23 -114 -25 -125 -2 -12 -6 -32 -9 -46 -3 -14 -12 -59
-20 -100 -8 -41 -17 -86 -20 -100 -3 -14 -8 -38 -11 -55 -3 -16 -21 -109 -40
-205 -20 -96 -37 -182 -39 -191 -2 -9 -6 -32 -9 -50 -3 -19 -19 -99 -36 -179
-82 -382 -83 -402 -27 -462 16 -17 21 -29 14 -32 -9 -3 -8 -5 1 -5 6 -1 12 -7
12 -15 0 -10 7 -13 20 -11 11 2 18 0 15 -4 -8 -14 21 -20 35 -8 9 9 11 9 7 1
-4 -7 0 -14 8 -18 8 -3 15 0 15 6 0 7 5 6 15 -2 11 -9 15 -9 15 -1 0 8 6 9 18
3 9 -5 26 -6 37 -1 11 4 37 8 58 8 21 1 36 5 33 9 -2 4 11 7 30 7 19 -1 34 2
34 6 0 4 21 11 48 15 26 3 55 14 66 23 10 9 19 14 20 12 2 -8 46 11 46 20 0 5
3 8 8 7 18 -5 74 15 62 22 -8 5 -7 9 5 14 16 6 16 8 1 31 -10 15 -12 25 -6 25
7 0 6 5 -2 13 -17 17 -12 131 5 120 9 -5 8 -2 0 8 -9 11 -12 74 -3 74 9 0 6
41 -3 47 -8 5 -6 8 6 8 20 0 24 36 5 43 -9 4 -7 6 3 6 18 1 22 32 5 43 -7 5
-5 8 6 8 11 0 15 6 11 20 -3 13 0 20 8 20 11 0 11 2 -1 10 -11 7 -11 10 -2 10
7 0 11 4 8 9 -4 5 0 12 6 14 7 3 4 6 -7 7 -19 1 -19 1 -2 11 9 6 15 15 12 20
-4 5 -11 6 -17 3 -7 -4 -8 -2 -4 5 4 6 12 9 17 6 5 -4 9 2 10 12 0 10 3 27 6
38 2 11 5 30 6 43 0 12 4 22 7 22 3 0 7 10 7 23 3 38 10 73 18 87 6 9 4 11 -6
5 -11 -7 -12 -6 -2 7 7 8 10 18 6 21 -3 4 -2 7 4 7 6 0 9 11 8 25 -2 14 2 25
8 25 7 0 5 5 -3 10 -10 6 -11 10 -2 10 6 0 12 5 12 11 0 5 -6 7 -12 3 -7 -4
-5 2 5 13 9 11 14 22 11 25 -3 4 0 16 6 28 10 18 10 21 -2 14 -9 -6 -9 -3 2
11 8 10 14 20 13 22 -2 1 -3 4 -2 6 5 15 10 48 12 74 1 18 5 33 9 33 3 0 5 8
3 18 -1 9 1 22 5 27 6 9 10 30 13 78 1 9 4 17 7 17 3 0 6 8 7 18 2 37 10 80
18 92 6 9 4 11 -6 5 -11 -7 -12 -6 -3 6 11 14 13 24 17 78 1 16 5 27 9 25 4
-3 6 9 4 25 -2 18 1 28 6 25 5 -4 8 2 7 12 -2 11 -1 24 3 29 3 6 8 28 9 50 2
22 8 43 13 47 6 4 4 14 -5 24 -9 11 -9 15 -1 10 8 -5 12 0 13 13 2 29 3 34 12
49 5 7 3 12 -5 12 -10 0 -10 2 1 9 7 5 10 14 7 20 -4 6 -2 11 4 11 6 0 8 5 5
10 -4 6 -11 7 -17 4 -7 -4 -8 -2 -4 5 4 6 11 9 16 6 4 -3 11 2 14 11 4 10 2
13 -6 8 -7 -5 -8 -3 -2 7 10 16 14 35 16 67 0 12 4 25 8 27 5 3 6 14 3 25 -3
11 0 20 6 20 9 0 9 5 0 21 -7 13 -7 19 -1 15 6 -3 13 -2 17 4 3 5 1 10 -5 10
-8 0 -8 6 0 21 7 11 9 23 6 26 -3 4 -1 12 5 20 6 7 9 13 5 13 -3 0 -1 12 4 26
8 19 7 23 -3 18 -9 -6 -9 -5 0 8 7 8 10 18 6 21 -3 4 -1 7 4 7 6 0 10 11 8 25
-1 14 2 25 7 25 5 0 6 4 3 10 -3 5 -2 18 4 28 6 11 6 24 -1 36 -7 13 -7 17 0
12 13 -8 27 54 19 84 -3 11 0 18 6 17 6 -1 11 14 13 33 1 19 3 35 4 35 4 0 20
75 22 108 1 15 6 27 11 27 5 0 4 7 -3 15 -10 12 -10 15 0 15 7 0 10 7 6 15 -3
8 -2 15 2 15 4 0 8 8 9 18 2 21 11 76 14 80 1 1 2 10 3 20 1 9 4 22 7 27 3 6
6 26 8 45 1 19 5 37 9 40 4 3 8 16 9 30 2 39 9 76 18 90 6 9 4 11 -6 5 -12 -8
-12 -6 -1 8 8 9 11 21 8 26 -4 5 -2 12 3 15 5 4 8 14 6 24 -1 9 1 24 6 33 5
10 3 21 -4 29 -9 10 -9 11 0 6 6 -3 14 -2 18 4 3 5 -2 10 -12 10 -13 0 -15 2
-5 9 14 8 14 111 0 111 -5 0 -8 4 -8 9 0 5 -14 34 -32 65 -52 90 -119 108
-278 76z m263 -535 c-3 -9 -8 -14 -10 -11 -3 3 -2 9 2 15 9 16 15 13 8 -4z
m-263 -1281 c0 -8 -19 -13 -24 -6 -3 5 1 9 9 9 8 0 15 -2 15 -3z m-45 -244 c3
-6 -1 -7 -9 -4 -18 7 -21 14 -7 14 6 0 13 -4 16 -10z m-65 -294 c0 -3 -4 -8
-10 -11 -5 -3 -10 -1 -10 4 0 6 5 11 10 11 6 0 10 -2 10 -4z m-84 -442 c1 -9
0 -13 -4 -10 -3 4 -7 14 -8 22 -1 9 0 13 4 10 3 -4 7 -14 8 -22z m-181 -764
c3 -5 1 -10 -4 -10 -6 0 -11 5 -11 10 0 6 2 10 4 10 3 0 8 -4 11 -10z m-220
-59 c3 -5 2 -12 -3 -15 -5 -3 -9 1 -9 9 0 17 3 19 12 6z"/>
</g>
</svg>
